<?xml version="1.0" encoding="UTF-8"?>
<svg id="Layer_2" data-name="Layer 2" xmlns="http://www.w3.org/2000/svg" viewBox="0 0 300 252.26">
  <defs>
    <style>
      .cls-1 {
        fill: #e79c59;
        fill-rule: evenodd;
      }
    </style>
  </defs>
  <g id="Layer_1-2" data-name="Layer 1">
    <g>
      <path class="cls-1" d="M300,40.98v-4.1C255.21,15.9,216.29-18.04,153.62,11.66,93.99,39.92,78.1,61.4,0,37.79c5.09,6.93,.05,1.54,6.15,7.15,28.34,26.12,93.69,45.68,142.27,20.7,93.8-48.24,80.02-35.95,151.58-24.66"/>
      <path class="cls-1" d="M270.11,128.04v-3.29c-35.86-16.8-67.03-43.98-117.22-20.19-47.75,22.63-60.47,39.83-123.01,20.92,4.07,5.55,.04,1.23,4.92,5.73,22.7,20.92,75.03,36.58,113.92,16.58,75.11-38.62,64.07-28.79,121.38-19.75"/>
      <path class="cls-1" d="M300,216.06v-4.1c-44.79-20.98-83.71-54.92-146.38-25.21-59.64,28.26-75.52,49.74-153.62,26.12,5.09,6.93,.05,1.54,6.15,7.15,28.34,26.12,93.69,45.68,142.27,20.7,93.8-48.24,80.02-35.95,151.58-24.66"/>
    </g>
  </g>
</svg>